<svg height="21" xmlns="http://www.w3.org/2000/svg" viewBox="0 0 21 22">
                    <path fill="#fff"
                        d="M9.675 16.15h1.8V10h-1.8v6.15Zm.825-7.8c.3 0 .546-.096.737-.287a.967.967 0 0 0 .288-.713c0-.317-.096-.57-.288-.762A.999.999 0 0 0 10.5 6.3a1 1 0 0 0-.738.288c-.191.191-.287.445-.287.762 0 .283.096.52.287.713a.998.998 0 0 0 .738.287Zm0 13c-1.467 0-2.83-.263-4.088-.788a10.093 10.093 0 0 1-3.287-2.187 10.092 10.092 0 0 1-2.188-3.287C.412 13.829.15 12.466.15 11c0-1.45.262-2.808.787-4.075a9.92 9.92 0 0 1 2.188-3.287 10.538 10.538 0 0 1 3.287-2.2C7.671.895 9.033.625 10.5.625c1.45 0 2.808.27 4.075.813a10.349 10.349 0 0 1 3.287 2.2 10.387 10.387 0 0 1 2.2 3.274c.542 1.259.813 2.621.813 4.088s-.27 2.83-.813 4.088a10.539 10.539 0 0 1-2.2 3.287 9.92 9.92 0 0 1-3.287 2.188c-1.267.524-2.625.787-4.075.787Zm0-1.975c2.3 0 4.27-.817 5.912-2.45 1.642-1.633 2.463-3.608 2.463-5.925 0-2.3-.82-4.27-2.463-5.912C14.771 3.446 12.8 2.625 10.5 2.625s-4.27.82-5.913 2.463C2.946 6.729 2.125 8.7 2.125 11c0 2.317.82 4.292 2.462 5.925 1.642 1.633 3.613 2.45 5.913 2.45Z" />
                </svg>